<?xml version="1.0"?>
<svg xmlns="http://www.w3.org/2000/svg" id="Layer_1" enable-background="new 0 0 496 496" height="512" viewBox="0 0 496 496" width="512" class="hovered-paths"><g><path d="m480 45h-29v-29c0-8.836-7.163-16-16-16h-76c-8.837 0-16 7.164-16 16v29h-29c-8.837 0-16 7.164-16 16v43c0 4.418 3.582 8 8 8h182c4.418 0 8-3.582 8-8v-43c0-8.836-7.163-16-16-16zm-61 0h-44v-13h44zm77 107v24c0 8.836-7.163 16-16 16h-166c-8.837 0-16-7.164-16-16v-24c0-4.418 3.582-8 8-8h182c4.418 0 8 3.582 8 8zm0 328c0 8.836-7.164 16-16 16-6.559 0-457.848 0-464 0-8.836 0-16-7.164-16-16s7.164-16 16-16h25.182v-90.545c0-8.836 7.164-16 16-16h83.728c8.836 0 16 7.164 16 16v90.545h33.227v-157.773c0-8.836 7.164-16 16-16h83.728c8.836 0 16 7.164 16 16v157.773h33.227v-225c0-8.836 7.164-16 16-16h83.728c8.836 0 16 7.164 16 16v225h25.18c8.836 0 16 7.164 16 16zm-457.604-206.005c60.161-1.488 120.356-22.059 169.618-63.405 6.031 16.138 30.003 12.556 30.962-4.703l2-36c.557-10.021-8.165-18.091-18.118-16.744l-37 5c-17.035 2.303-18.851 26.315-2.389 31.192-42.608 34.228-94.101 51.389-145.864 52.669-8.834.219-15.818 7.557-15.6 16.391.219 8.871 7.6 15.824 16.391 15.6z" data-original="#000000" class="hovered-path active-path" data-old_color="#000000" style="fill:#FFFFFF"/></g> </svg>
